<svg width="54" height="54" viewBox="0 0 54 54" fill="none" xmlns="http://www.w3.org/2000/svg">
<path d="M0 21.6808C0 17.192 1.00125 13.0736 3.00375 9.32544C5.00625 5.57731 7.695 2.46883 11.07 0L14.2425 4.30923C11.5425 6.28429 9.39375 8.77556 7.79625 11.783C6.19875 14.7905 5.4 18.0898 5.4 21.6808H0ZM48.6 21.6808C48.6 18.0898 47.8012 14.7905 46.2037 11.783C44.6062 8.77556 42.4575 6.28429 39.7575 4.30923L42.93 0C46.305 2.46883 48.9938 5.57731 50.9963 9.32544C52.9988 13.0736 54 17.192 54 21.6808H48.6ZM5.4 45.9202V40.5337H10.8V21.6808C10.8 17.9551 11.925 14.6446 14.175 11.7494C16.425 8.85412 19.35 6.95761 22.95 6.05985V4.17456C22.95 3.05237 23.3438 2.09851 24.1313 1.31297C24.9188 0.527433 25.875 0.134663 27 0.134663C28.125 0.134663 29.0812 0.527433 29.8687 1.31297C30.6562 2.09851 31.05 3.05237 31.05 4.17456V6.05985C34.65 6.95761 37.575 8.85412 39.825 11.7494C42.075 14.6446 43.2 17.9551 43.2 21.6808V40.5337H48.6V45.9202H5.4ZM27 54C25.515 54 24.2437 53.4726 23.1862 52.4177C22.1287 51.3628 21.6 50.0948 21.6 48.6135H32.4C32.4 50.0948 31.8713 51.3628 30.8138 52.4177C29.7563 53.4726 28.485 54 27 54ZM16.2 40.5337H37.8V21.6808C37.8 18.7182 36.7425 16.182 34.6275 14.0723C32.5125 11.9626 29.97 10.9077 27 10.9077C24.03 10.9077 21.4875 11.9626 19.3725 14.0723C17.2575 16.182 16.2 18.7182 16.2 21.6808V40.5337Z" fill="#F8FAFC"/>
</svg>
