<svg width="48" height="53" viewBox="0 0 48 53" fill="none" xmlns="http://www.w3.org/2000/svg">
<path d="M8 53C5.77778 53 3.88889 52.2271 2.33333 50.6812C0.777778 49.1354 0 47.2583 0 45.05V37.1H8V0L12 3.975L16 0L20 3.975L24 0L28 3.975L32 0L36 3.975L40 0L44 3.975L48 0V45.05C48 47.2583 47.2222 49.1354 45.6667 50.6812C44.1111 52.2271 42.2222 53 40 53H8ZM40 47.7C40.7556 47.7 41.3889 47.446 41.9 46.9381C42.4111 46.4302 42.6667 45.8008 42.6667 45.05V7.95H13.3333V37.1H37.3333V45.05C37.3333 45.8008 37.5889 46.4302 38.1 46.9381C38.6111 47.446 39.2444 47.7 40 47.7ZM16 18.55V13.25H32V18.55H16ZM16 26.5V21.2H32V26.5H16ZM37.3333 18.55C36.5778 18.55 35.9444 18.296 35.4333 17.7881C34.9222 17.2802 34.6667 16.6508 34.6667 15.9C34.6667 15.1492 34.9222 14.5198 35.4333 14.0119C35.9444 13.504 36.5778 13.25 37.3333 13.25C38.0889 13.25 38.7222 13.504 39.2333 14.0119C39.7444 14.5198 40 15.1492 40 15.9C40 16.6508 39.7444 17.2802 39.2333 17.7881C38.7222 18.296 38.0889 18.55 37.3333 18.55ZM37.3333 26.5C36.5778 26.5 35.9444 26.246 35.4333 25.7381C34.9222 25.2302 34.6667 24.6008 34.6667 23.85C34.6667 23.0992 34.9222 22.4698 35.4333 21.9619C35.9444 21.454 36.5778 21.2 37.3333 21.2C38.0889 21.2 38.7222 21.454 39.2333 21.9619C39.7444 22.4698 40 23.0992 40 23.85C40 24.6008 39.7444 25.2302 39.2333 25.7381C38.7222 26.246 38.0889 26.5 37.3333 26.5ZM8 47.7H32V42.4H5.33333V45.05C5.33333 45.8008 5.58889 46.4302 6.1 46.9381C6.61111 47.446 7.24444 47.7 8 47.7ZM5.33333 47.7C5.33333 47.7 5.33333 47.446 5.33333 46.9381C5.33333 46.4302 5.33333 45.8008 5.33333 45.05V42.4V47.7Z" fill="white"/>
</svg>
