<svg width="43" height="43" viewBox="0 0 43 43" fill="none" xmlns="http://www.w3.org/2000/svg">
<path d="M21.5 21.5C18.5438 21.5 16.013 20.4474 13.9078 18.3422C11.8026 16.237 10.75 13.7063 10.75 10.75C10.75 7.79375 11.8026 5.26302 13.9078 3.15781C16.013 1.05261 18.5438 0 21.5 0C24.4562 0 26.987 1.05261 29.0922 3.15781C31.1974 5.26302 32.25 7.79375 32.25 10.75C32.25 13.7063 31.1974 16.237 29.0922 18.3422C26.987 20.4474 24.4562 21.5 21.5 21.5ZM0 43V35.475C0 33.9521 0.391927 32.5523 1.17578 31.2758C1.95964 29.9992 3.00104 29.025 4.3 28.3531C7.07708 26.9646 9.89896 25.9232 12.7656 25.2289C15.6323 24.5346 18.5438 24.1875 21.5 24.1875C24.4562 24.1875 27.3677 24.5346 30.2344 25.2289C33.101 25.9232 35.9229 26.9646 38.7 28.3531C39.999 29.025 41.0404 29.9992 41.8242 31.2758C42.6081 32.5523 43 33.9521 43 35.475V43H0ZM5.375 37.625H37.625V35.475C37.625 34.9823 37.5018 34.5344 37.2555 34.1313C37.0091 33.7281 36.6844 33.4146 36.2812 33.1906C33.8625 31.9813 31.4214 31.0742 28.9578 30.4695C26.4943 29.8648 24.0083 29.5625 21.5 29.5625C18.9917 29.5625 16.5057 29.8648 14.0422 30.4695C11.5786 31.0742 9.1375 31.9813 6.71875 33.1906C6.31563 33.4146 5.99089 33.7281 5.74453 34.1313C5.49818 34.5344 5.375 34.9823 5.375 35.475V37.625ZM21.5 16.125C22.9781 16.125 24.2435 15.5987 25.2961 14.5461C26.3487 13.4935 26.875 12.2281 26.875 10.75C26.875 9.27188 26.3487 8.00651 25.2961 6.95391C24.2435 5.9013 22.9781 5.375 21.5 5.375C20.0219 5.375 18.7565 5.9013 17.7039 6.95391C16.6513 8.00651 16.125 9.27188 16.125 10.75C16.125 12.2281 16.6513 13.4935 17.7039 14.5461C18.7565 15.5987 20.0219 16.125 21.5 16.125Z" fill="#F8FAFC"/>
</svg>
